<?xml version="1.0" encoding="utf-8"?>
<!-- Generator: Adobe Illustrator 16.0.0, SVG Export Plug-In . SVG Version: 6.00 Build 0)  -->
<!DOCTYPE svg PUBLIC "-//W3C//DTD SVG 1.1//EN" "http://www.w3.org/Graphics/SVG/1.1/DTD/svg11.dtd">
<svg version="1.1" id="Layer_1" xmlns="http://www.w3.org/2000/svg" xmlns:xlink="http://www.w3.org/1999/xlink" x="0px" y="0px"
	 width="384.5px" height="91px" viewBox="0 0 384.5 91" enable-background="new 0 0 384.5 91" xml:space="preserve">
<g>
	<path fill="#F1F2F2" d="M91.321,18.742h4.13c2.38,0,3.991,1.54,3.991,3.99v40.534h22.192c2.38,0,3.991,1.61,3.991,3.99v2.73H91.321
		V18.742z"/>
	<path fill="#F1F2F2" d="M135.281,20.142c2.59,0,4.48,1.96,4.48,4.34c0,2.45-1.82,4.48-4.48,4.48c-2.66,0-4.55-2.03-4.55-4.48
		C130.73,22.172,132.621,20.142,135.281,20.142z M131.641,66.347V33.443h3.64c2.101,0,3.641,1.54,3.641,3.641v32.903h-3.641
		C133.181,69.987,131.641,68.447,131.641,66.347z"/>
	<path fill="#F1F2F2" d="M157.611,22.242v27.513l12.951-14.282c1.12-1.33,2.73-2.03,4.41-2.03h6.371l-16.172,17.922l17.502,18.622
		h-6.581c-1.68,0-3.22-0.63-4.34-1.96l-14.142-14.982v13.301c0,2.101-1.541,3.641-3.641,3.641h-3.71V18.602h3.71
		C156.07,18.602,157.611,20.142,157.611,22.242z"/>
	<path fill="#F1F2F2" d="M202.761,32.743c10.711,0,17.502,6.931,17.502,19.182c0,0.91-0.07,1.89-0.07,2.661H191.7
		c0.421,5.46,5.251,9.871,12.602,9.871c3.57,0,6.23-0.98,7.841-1.82c1.681-0.771,3.431-0.84,4.831,0.7l1.68,1.75
		c0,0-4.62,5.601-14.771,5.601c-12.392,0-19.742-7.841-19.742-18.902C184.139,39.324,192.96,32.743,202.761,32.743z M191.7,49.265
		h20.933c-0.28-6.091-3.36-10.291-9.941-10.291C196.601,38.974,192.05,43.035,191.7,49.265z"/>
	<path fill="#F1F2F2" d="M228.73,18.742h20.792c13.021,0,19.672,7.911,19.672,17.852c0,9.871-6.65,17.222-19.531,17.222h-12.882
		v12.042c0,2.52-1.61,4.13-4.061,4.13h-3.99V18.742z M249.522,47.235c7.561,0,11.621-4.76,11.621-10.641
		c0-6.021-4.2-11.131-11.901-11.131h-12.461v21.772H249.522z"/>
	<path fill="#F1F2F2" d="M280.39,20.142c2.591,0,4.48,1.96,4.48,4.34c0,2.45-1.82,4.48-4.48,4.48s-4.55-2.03-4.55-4.48
		C275.84,22.172,277.73,20.142,280.39,20.142z M276.75,66.347V33.443h3.641c2.101,0,3.641,1.54,3.641,3.641v32.903h-3.641
		C278.291,69.987,276.75,68.447,276.75,66.347z"/>
	<path fill="#F1F2F2" d="M312.031,32.743c11.342,0,19.111,8.401,19.111,18.902c0,10.571-7.77,19.042-19.111,19.042
		c-11.341,0-19.042-8.471-19.042-19.042C292.989,41.145,300.69,32.743,312.031,32.743z M300.41,51.646
		c0,7.21,4.131,12.321,11.622,12.321c7.49,0,11.621-5.111,11.621-12.321c0-7.141-4.131-12.182-11.621-12.182
		C304.541,39.464,300.41,44.505,300.41,51.646z"/>
	<path fill="#F1F2F2" d="M342.971,69.987h-3.711V33.443h3.711c2.1,0,3.641,1.54,3.641,3.641v1.96c2.66-3.08,6.93-6.23,13.021-6.23
		c8.189,0,13.93,5.88,13.93,15.332v21.842h-3.709c-2.102,0-3.641-1.54-3.641-3.641V49.545c0-6.44-3.361-10.011-9.031-10.011
		c-6.371,0-10.57,4.48-10.57,10.571v16.241C346.611,68.447,345.07,69.987,342.971,69.987z"/>
</g>
<path fill="#0089CF" d="M40.102,6.837L7.176,25.848v38.021l32.926,19.012l32.928-19.012V25.848L40.102,6.837z M33.54,30.258
	c1.432,0,2.804,0.569,3.817,1.581l2.747,2.745l8.304-8.307c1.036-1.035,2.439-1.616,3.902-1.616h4.551
	c0.69,0,1.033,0.833,0.547,1.32L44.454,38.935l-0.463,0.494l-2.216,2.199c-0.926,0.916-2.418,0.916-3.343,0l-2.695-2.678
	l0.015-0.016l-8.677-8.677H33.54z M19.905,32.659v-4.576c0-0.683,0.826-1.026,1.309-0.543l12.977,12.955l2.68,2.68
	c0.925,0.922,0.928,2.42,0.006,3.348l-2.684,2.704l-0.014-0.014l-8.679,8.676v-6.436c0-1.451,0.576-2.842,1.603-3.872l2.723-2.723
	l-8.312-8.313C20.479,35.508,19.905,34.128,19.905,32.659z M46.719,59.463c-1.466,0-2.873-0.584-3.909-1.621l-2.706-2.707
	l-8.34,8.34c-1.013,1.014-2.388,1.582-3.82,1.582h-4.602c-0.688,0-1.032-0.832-0.546-1.316l12.956-12.957l0.464-0.494l2.214-2.196
	c0.925-0.918,2.421-0.918,3.346,0l2.693,2.674l-0.015,0.016l8.679,8.68H46.719z M60.3,61.672c0,0.67-0.81,1.004-1.282,0.529
	L46.301,49.398l0,0l-0.016-0.018l-0.197-0.197l-2.668-2.688c-0.904-0.93-0.897-2.41,0.013-3.33l2.645-2.674l0.014,0.016l8.64-8.683
	v6.501c0,1.412-0.558,2.768-1.555,3.77l-2.76,2.76l0.007,0.007l0.002-0.003l8.288,8.331c1.024,1.027,1.587,2.393,1.587,3.848V61.672
	z"/>
</svg>
