<?xml version="1.0" encoding="utf-8"?>
<!-- Generator: Adobe Illustrator 16.0.0, SVG Export Plug-In . SVG Version: 6.00 Build 0)  -->
<!DOCTYPE svg PUBLIC "-//W3C//DTD SVG 1.1//EN" "http://www.w3.org/Graphics/SVG/1.1/DTD/svg11.dtd">
<svg version="1.1" id="Layer_1" xmlns="http://www.w3.org/2000/svg" xmlns:xlink="http://www.w3.org/1999/xlink" x="0px" y="0px"
	 width="500px" height="500px" viewBox="0 0 500 500" enable-background="new 0 0 500 500" xml:space="preserve">
<g>
	<g>
		<linearGradient id="SVGID_1_" gradientUnits="userSpaceOnUse" x1="278.8301" y1="147.6587" x2="412.0704" y2="14.4183">
			<stop  offset="0.1082" style="stop-color:#1D98D5"/>
			<stop  offset="0.3237" style="stop-color:#2CA2DC"/>
			<stop  offset="0.9951" style="stop-color:#4DC2F0"/>
		</linearGradient>
		<path fill="url(#SVGID_1_)" d="M462.617,17.52c5.983-6.015,1.747-16.27-6.76-16.27h-56.078c-18.04,0-35.351,7.148-48.086,19.897
			l-102.372,102.37l53.637,53.618L462.617,17.52z"/>
		<linearGradient id="SVGID_2_" gradientUnits="userSpaceOnUse" x1="160.1064" y1="90.2021" x2="257.01" y2="183.645">
			<stop  offset="0.1082" style="stop-color:#1D98D5"/>
			<stop  offset="0.3249" style="stop-color:#2CA2DC"/>
			<stop  offset="1" style="stop-color:#4DC2F0"/>
		</linearGradient>
		<path fill="url(#SVGID_2_)" d="M195.521,177.324l33.219,32.989c11.39,11.32,29.792,11.331,41.171,0l27.311-27.069l5.736-6.108
			l-53.637-53.618l-33.833-33.829c-12.471-12.466-29.385-19.484-47.037-19.484H88.755l106.936,106.931L195.521,177.324z"/>
		<linearGradient id="SVGID_3_" gradientUnits="userSpaceOnUse" x1="225.4092" y1="351.4824" x2="118.1303" y2="450.1097">
			<stop  offset="0.1082" style="stop-color:#1D98D5"/>
			<stop  offset="0.3237" style="stop-color:#2CA2DC"/>
			<stop  offset="0.9951" style="stop-color:#4DC2F0"/>
		</linearGradient>
		<path fill="url(#SVGID_3_)" d="M36.016,482.838c-5.984,5.991-1.736,16.223,6.729,16.223h56.72c17.652,0,34.602-7.018,47.08-19.507
			l102.775-102.761l-53.63-53.642L36.016,482.838z"/>
		<linearGradient id="SVGID_4_" gradientUnits="userSpaceOnUse" x1="340.2354" y1="416.7402" x2="243.3325" y2="312.9159">
			<stop  offset="0.1082" style="stop-color:#1D98D5"/>
			<stop  offset="0.3249" style="stop-color:#2CA2DC"/>
			<stop  offset="1" style="stop-color:#4DC2F0"/>
		</linearGradient>
		<path fill="url(#SVGID_4_)" d="M269.941,289.999c-11.409-11.309-29.836-11.309-41.249,0l-27.264,27.079l-5.737,6.073l0,0
			l53.63,53.642l33.361,33.356c12.784,12.774,30.118,19.944,48.185,19.944h79.028L302.958,323.151l0.173-0.178L269.941,289.999z"/>
		<linearGradient id="SVGID_5_" gradientUnits="userSpaceOnUse" x1="132.9888" y1="240.25" x2="4.9403" y2="108.7407">
			<stop  offset="0.1082" style="stop-color:#1D98D5"/>
			<stop  offset="0.3237" style="stop-color:#2CA2DC"/>
			<stop  offset="0.9951" style="stop-color:#4DC2F0"/>
		</linearGradient>
		<path fill="url(#SVGID_5_)" d="M122.701,250.143l-33.573,33.581l87.34-87.341L16.539,36.72
			c-5.949-5.956-16.123-1.725-16.123,6.688v56.384c0,18.101,7.048,35.126,19.844,47.935L122.701,250.143z"/>
		<linearGradient id="SVGID_6_" gradientUnits="userSpaceOnUse" x1="88.4834" y1="342.0996" x2="166.3582" y2="259.0332">
			<stop  offset="0.1082" style="stop-color:#1D98D5"/>
			<stop  offset="0.3249" style="stop-color:#2CA2DC"/>
			<stop  offset="1" style="stop-color:#4DC2F0"/>
		</linearGradient>
		<path fill="url(#SVGID_6_)" d="M69.366,331.398v79.329l106.959-106.94l0.177,0.177l33.084-33.32
			c11.349-11.424,11.308-29.882-0.083-41.26l-33.036-33.001l-87.34,87.341C76.479,296.365,69.366,313.522,69.366,331.398z"/>
		<linearGradient id="SVGID_7_" gradientUnits="userSpaceOnUse" x1="356.5908" y1="281.9795" x2="482.9103" y2="413.4904">
			<stop  offset="0.1082" style="stop-color:#1D98D5"/>
			<stop  offset="0.3237" style="stop-color:#2CA2DC"/>
			<stop  offset="0.9951" style="stop-color:#4DC2F0"/>
		</linearGradient>
		<path fill="url(#SVGID_7_)" d="M323.081,303.42l159.35,160.455c5.819,5.85,15.815,1.725,15.815-6.523v-57.115
			c0-17.935-6.954-34.773-19.555-47.45L376.547,250.143L323.081,303.42z"/>
		<linearGradient id="SVGID_8_" gradientUnits="userSpaceOnUse" x1="454.4316" y1="125.7305" x2="307.3428" y2="258.9758">
			<stop  offset="0.1082" style="stop-color:#1D98D5"/>
			<stop  offset="0.3249" style="stop-color:#2CA2DC"/>
			<stop  offset="1" style="stop-color:#4DC2F0"/>
		</linearGradient>
		<path fill="url(#SVGID_8_)" d="M429.615,169.645V89.511l-106.5,107.003l-0.165-0.165l-32.587,32.928
			c-11.224,11.355-11.306,29.599-0.177,41.035l32.895,33.107l87.352-87.328C422.721,203.745,429.615,187.05,429.615,169.645z"/>
	</g>
</g>
</svg>
